<svg xmlns="http://www.w3.org/2000/svg" viewBox="0 0 640 640" aria-hidden="true">
  <path fill="currentColor" d="M192 64C156.7 64 128 92.7 128 128V512C128 547.3 156.7 576 192 576H448C483.3 576 512 547.3 512 512V224L352 64H192ZM352 96L480 224H384C366.3 224 352 209.7 352 192V96ZM224 288H416C429.3 288 440 298.7 440 312C440 325.3 429.3 336 416 336H224C210.7 336 200 325.3 200 312C200 298.7 210.7 288 224 288ZM224 384H320C333.3 384 344 394.7 344 408C344 421.3 333.3 432 320 432H224C210.7 432 200 421.3 200 408C200 394.7 210.7 384 224 384ZM430.8 373.5C441 363.5 457.3 363.6 467.4 373.7L501.1 407.6C511.1 417.8 511.1 434 500.9 444.1L432.8 511.2C428.3 515.6 422.6 518.7 416.5 520.3L372.7 531.6C361.5 534.5 349.5 531.3 341.3 523C333.1 514.7 330 502.7 333 491.6L344.9 448C346.6 441.9 349.8 436.4 354.3 432L430.8 373.5ZM384.2 461.6L412.8 490.2L467 436.8L438.4 408.1L384.2 461.6Z"/>
</svg>
