<svg xmlns="http://www.w3.org/2000/svg" viewBox="0 0 640 640" aria-hidden="true">
  <path fill="currentColor" d="M192 80C156.7 80 128 108.7 128 144V528C128 563.3 156.7 592 192 592H448C483.3 592 512 563.3 512 528V144C512 108.7 483.3 80 448 80H384C370.7 80 360 90.7 360 104V120H280V104C280 90.7 269.3 80 256 80H192ZM224 216H416C429.3 216 440 226.7 440 240C440 253.3 429.3 264 416 264H224C210.7 264 200 253.3 200 240C200 226.7 210.7 216 224 216ZM224 328H328C341.3 328 352 338.7 352 352C352 365.3 341.3 376 328 376H224C210.7 376 200 365.3 200 352C200 338.7 210.7 328 224 328ZM470.1 354.1C482.6 341.6 502.9 341.6 515.4 354.1L542 380.7C554.5 393.2 554.5 413.5 542 426L457.9 510.1C453.4 514.6 447.8 517.8 441.7 519.5L387.8 534.9C376.1 538.2 363.5 534.9 355 526.4C346.5 517.9 343.2 505.3 346.5 493.6L361.9 439.7C363.6 433.6 366.8 428 371.3 423.5L470.1 354.1ZM402.4 470.8L418.8 487.2L494.7 411.4L478.3 395L402.4 470.8Z"/>
</svg>
