<svg xmlns="http://www.w3.org/2000/svg" viewBox="0 0 640 640" aria-hidden="true">
  <path fill="currentColor" d="M96 176C96 140.7 124.7 112 160 112H272L320 160H480C515.3 160 544 188.7 544 224V432C544 467.3 515.3 496 480 496H160C124.7 496 96 467.3 96 432V176ZM208 256C181.5 256 160 277.5 160 304C160 330.5 181.5 352 208 352C234.5 352 256 330.5 256 304C256 277.5 234.5 256 208 256ZM432 240C405.5 240 384 261.5 384 288C384 314.5 405.5 336 432 336C458.5 336 480 314.5 480 288C480 261.5 458.5 240 432 240ZM320 368C293.5 368 272 389.5 272 416C272 442.5 293.5 464 320 464C346.5 464 368 442.5 368 416C368 389.5 346.5 368 320 368ZM244.1 329.4L283.2 376.3C291.7 370.5 301.9 367.2 312.9 367L397.2 315C392.7 307.1 390.1 297.9 390.1 288L260.9 299.3C258.7 311.2 252.9 321.8 244.1 329.4Z"/>
</svg>
