<svg xmlns="http://www.w3.org/2000/svg" viewBox="0 0 24 24">
  <path d="M7.5 3A1.5 1.5 0 0 0 6 4.5V6H4.5A1.5 1.5 0 0 0 3 7.5v12A1.5 1.5 0 0 0 4.5 21h12a1.5 1.5 0 0 0 1.5-1.5V18h1.5A1.5 1.5 0 0 0 21 16.5v-9a1.5 1.5 0 0 0-.44-1.06l-3-3A1.5 1.5 0 0 0 16.5 3h-9Zm0 1.5h8.38L19.5 8.12v8.38h-1.5v-9A1.5 1.5 0 0 0 16.5 6H7.5V4.5Zm0 3h9v12h-12v-12h3Zm1.5 2.25a.75.75 0 0 0 0 1.5h6a.75.75 0 0 0 0-1.5h-6Zm0 3a.75.75 0 0 0 0 1.5h6a.75.75 0 0 0 0-1.5h-6Zm0 3a.75.75 0 0 0 0 1.5h3a.75.75 0 0 0 0-1.5h-3Z"/>
</svg>
