<svg xmlns="http://www.w3.org/2000/svg" viewBox="0 0 640 640" aria-hidden="true">
  <path fill="currentColor" d="M112 128C112 92.7 140.7 64 176 64H304C341.5 64 377.5 78.9 404 105.4L416 117.4L428 105.4C454.5 78.9 490.5 64 528 64H528C563.3 64 592 92.7 592 128V480C592 515.3 563.3 544 528 544C495.8 544 464.9 556.8 442.1 579.6L432.6 589.1C423.2 598.5 408 598.5 398.6 589.1L389.1 579.6C366.3 556.8 335.4 544 303.2 544H176C140.7 544 112 515.3 112 480V128ZM176 112C167.2 112 160 119.2 160 128V480C160 488.8 167.2 496 176 496H292.7C329.8 496 365.9 506.4 397.2 525.9L400 527.7V152.7L370.1 122.8C352.6 105.3 328.9 95.9 304 95.9H176V112ZM448 527.7L450.8 525.9C482.1 506.4 518.2 496 555.3 496H560C568.8 496 576 488.8 576 480V128C576 119.2 568.8 112 560 112H528C503.1 112 479.4 121.3 461.9 138.8L448 152.7V527.7Z"/>
</svg>
